<svg width="136" height="130" viewBox="0 0 136 130" fill="none" xmlns="http://www.w3.org/2000/svg">
<g clip-path="url(#clip0_3_2604)">
<path d="M41.7891 102.245C50.6248 96.8489 59.4605 91.4644 68.1634 86.1522C77.3733 91.5488 86.4263 96.873 95.4914 102.185C94.0308 102.944 92.5582 103.715 90.4217 104.823C90.4217 112.304 90.4217 120.435 90.4217 128.927C83.9639 128.927 78.0372 128.927 71.507 128.927C71.507 124.952 71.507 121.061 71.507 116.58C69.0325 116.183 67.0409 115.857 65.2061 115.568C64.337 120.7 63.5766 125.253 62.8041 129.818C57.9637 129.818 53.1234 129.818 48.271 129.818C47.5709 129.722 46.8587 129.614 46.1586 129.517C46.1586 121.374 46.1586 113.231 46.1586 105.474C44.3722 104.149 43.0806 103.197 41.7891 102.245Z" fill="#FECD4F"/>
<path d="M58.9168 13.5396C60.8602 15.5874 62.7915 17.6352 66.3523 21.3815C63.6002 28.5367 59.8583 38.2698 56.044 48.1955C45.4097 48.9183 35.21 49.6049 25.9398 50.2313C25.7346 47.4969 25.6139 45.7984 25.4932 44.1C21.3891 38.2095 17.2851 32.3191 12.8311 25.9107C17.7438 22.2608 22.4996 18.7434 27.7383 14.8647C30.5387 18.4905 33.1701 21.8994 35.9826 25.5614C37.8173 24.3086 39.4348 23.2124 41.5351 21.779C38.9157 18.117 36.393 14.6117 33.5926 10.7088C38.457 7.14328 43.1163 3.7343 48.2463 -0.0119629C51.1192 3.60179 53.9316 7.13123 56.7561 10.6727C57.1424 11.1545 57.5287 11.6364 57.9149 12.1182L57.7339 11.8893C58.1563 12.4314 58.5909 12.9735 59.0134 13.5155L58.9168 13.5396Z" fill="#0082C6"/>
<path d="M95.5995 99.8481C93.0526 90.4643 90.5057 81.0686 87.8984 71.456C95.6599 65.0476 103.156 58.856 110.012 53.1945C112.776 54.8688 114.961 56.1939 117.134 57.5189C123.169 59.6149 129.204 61.7109 135.988 64.0598C134.153 69.9141 132.343 75.672 130.411 81.7913C125.969 80.4542 122.01 79.2617 117.616 77.9487C116.892 79.7797 116.192 81.5504 115.226 83.9837C119.56 85.5617 123.603 87.0192 128.142 88.6695C126.283 94.4274 124.473 100.041 122.783 105.281C114.068 103.402 105.799 101.619 97.5187 99.836C96.8911 99.8481 96.2513 99.8481 95.5995 99.8481Z" fill="white"/>
<path d="M23.0791 52.9296C31.601 58.8441 40.1228 64.7706 48.8137 70.8056C45.9892 81.0928 43.4302 90.4524 40.8712 99.812C40.1228 99.4266 39.3865 99.0291 38.6381 98.6436C37.2259 98.9568 35.8015 99.2579 34.3893 99.5711L34.0634 99.4627L33.8461 99.7398C30.1283 100.944 26.3985 102.149 22.6807 103.354C19.9769 104.016 17.2731 104.679 13.8209 105.534C11.9862 99.9686 10.0911 94.2348 8.03905 88.0553C12.3603 86.4893 16.2471 85.0679 20.7012 83.4538C20.0856 81.418 19.482 79.4304 18.794 77.1658C14.4727 78.4788 10.5015 79.6955 5.81805 81.1289C3.83847 75.2987 1.99166 69.7576 0 63.7949C7.20618 61.3617 14.0502 59.1934 20.7494 56.6517C21.8358 56.2422 22.3186 54.2185 23.0791 52.9296Z" fill="#5EEACF"/>
<path d="M111.074 48.0512C101.044 48.0512 91.0009 48.0512 80.3063 48.0512C76.4799 38.4145 72.6173 28.7055 68.2598 17.7318C70.517 18.9484 71.724 19.5989 73.3777 20.4903C74.4158 18.8882 75.4659 17.262 76.5282 15.6358C80.3787 10.6006 84.2172 5.57749 88.297 0.229126C93.4029 3.9272 98.2191 7.40846 103.313 11.0824C100.742 14.8287 98.376 18.2497 95.7326 22.0924C97.4104 23.4174 99.0641 24.7063 100.971 26.212C103.723 22.5621 106.343 19.0929 109.228 15.2744C114.213 18.9122 118.981 22.3694 123.954 25.9952C119.5 32.4518 115.323 38.4988 111.147 44.5458C110.64 45.0758 110.145 45.6059 109.493 46.2925C110.109 46.955 110.592 47.485 111.086 48.015L111.074 48.0512Z" fill="#FF474E"/>
</g>
<defs>
<clipPath id="clip0_3_2604">
<rect width="136" height="129.818" fill="white"/>
</clipPath>
</defs>
</svg>
