<svg width="136" height="130" viewBox="0 0 136 130" fill="none" xmlns="http://www.w3.org/2000/svg">
<g clip-path="url(#clip0_3_1740)">
<path d="M41.7891 102.245C50.6248 96.8488 59.4605 91.4643 68.1634 86.1521C77.3733 91.5486 86.4263 96.8729 95.4914 102.185C94.0308 102.944 92.5582 103.715 90.4217 104.823C90.4217 112.304 90.4217 120.435 90.4217 128.927C83.9639 128.927 78.0372 128.927 71.507 128.927C71.507 124.952 71.507 121.061 71.507 116.58C69.0325 116.182 67.0409 115.857 65.2061 115.568C64.337 120.7 63.5766 125.253 62.8041 129.818C57.9637 129.818 53.1234 129.818 48.271 129.818C47.5709 129.722 46.8587 129.614 46.1586 129.517C46.1586 121.374 46.1586 113.231 46.1586 105.474C44.3722 104.149 43.0806 103.197 41.7891 102.245Z" fill="#FECD4F"/>
<path d="M58.9168 13.5396C60.8602 15.5874 62.7915 17.6352 66.3523 21.3815C63.6002 28.5367 59.8583 38.2698 56.044 48.1955C45.4097 48.9183 35.21 49.6049 25.9398 50.2313C25.7346 47.4969 25.6139 45.7984 25.4932 44.1C21.3891 38.2095 17.2851 32.3191 12.8311 25.9107C17.7438 22.2608 22.4996 18.7434 27.7383 14.8647C30.5387 18.4905 33.1701 21.8994 35.9826 25.5614C37.8173 24.3086 39.4348 23.2124 41.5351 21.779C38.9157 18.1171 36.393 14.6117 33.5926 10.7088C38.457 7.14328 43.1163 3.7343 48.2463 -0.0119629C51.1192 3.60179 53.9316 7.13123 56.7561 10.6727C57.1424 11.1545 57.5287 11.6364 57.9149 12.1182L57.7339 11.8893C58.1563 12.4314 58.5909 12.9735 59.0134 13.5155L58.9168 13.5396Z" fill="#0082C6"/>
<path d="M95.5995 99.8479C93.0526 90.4642 90.5057 81.0684 87.8984 71.4559C95.6599 65.0475 103.156 58.8559 110.012 53.1943C112.776 54.8687 114.961 56.1938 117.134 57.5188C123.169 59.6148 129.204 61.7108 135.988 64.0597C134.153 69.914 132.343 75.6719 130.411 81.7912C125.969 80.4541 122.01 79.2616 117.616 77.9486C116.892 79.7795 116.192 81.5503 115.226 83.9835C119.56 85.5616 123.603 87.0191 128.142 88.6694C126.283 94.4273 124.473 100.041 122.783 105.281C114.068 103.401 105.799 101.619 97.5187 99.8359C96.8911 99.8479 96.2513 99.8479 95.5995 99.8479Z" fill="white"/>
<path d="M23.0791 52.9297C31.601 58.8442 40.1228 64.7708 48.8137 70.8057C45.9892 81.0929 43.4302 90.4525 40.8712 99.8122C40.1228 99.4267 39.3865 99.0292 38.6381 98.6437C37.2259 98.9569 35.8015 99.2581 34.3893 99.5712L34.0634 99.4628L33.8461 99.7399C30.1283 100.944 26.3985 102.149 22.6807 103.354C19.9769 104.016 17.2731 104.679 13.8209 105.534C11.9862 99.9688 10.0911 94.2349 8.03905 88.0554C12.3603 86.4894 16.2471 85.068 20.7012 83.4539C20.0856 81.4181 19.482 79.4306 18.794 77.1659C14.4727 78.4789 10.5015 79.6956 5.81805 81.129C3.83847 75.2988 1.99166 69.7577 0 63.795C7.20618 61.3618 14.0502 59.1935 20.7494 56.6519C21.8358 56.2423 22.3186 54.2186 23.0791 52.9297Z" fill="#5EEACF"/>
<path d="M111.074 48.0511C101.044 48.0511 91.0009 48.0511 80.3063 48.0511C76.4799 38.4144 72.6173 28.7054 68.2598 17.7316C70.517 18.9483 71.724 19.5987 73.3777 20.4901C74.4158 18.888 75.4659 17.2618 76.5282 15.6357C80.3787 10.6005 84.2172 5.57736 88.297 0.229004C93.4029 3.92708 98.2191 7.40833 103.313 11.0823C100.742 14.8286 98.376 18.2496 95.7326 22.0922C97.4104 23.4173 99.0641 24.7062 100.971 26.2119C103.723 22.562 106.343 19.0928 109.228 15.2743C114.213 18.9121 118.981 22.3693 123.954 25.9951C119.5 32.4517 115.323 38.4987 111.147 44.5457C110.64 45.0757 110.145 45.6057 109.493 46.2924C110.109 46.9549 110.592 47.4849 111.086 48.0149L111.074 48.0511Z" fill="#FF474E"/>
</g>
<defs>
<clipPath id="clip0_3_1740">
<rect width="136" height="129.818" fill="white"/>
</clipPath>
</defs>
</svg>
