<svg width="84" height="81" viewBox="0 0 84 81" fill="none" xmlns="http://www.w3.org/2000/svg">
<g clip-path="url(#clip0_3_3124)">
<path d="M25.8105 63.796C31.2679 60.4289 36.7253 57.0692 42.1006 53.7546C47.7891 57.1218 53.3806 60.4439 58.9796 63.7584C58.0775 64.232 57.168 64.713 55.8484 65.4044C55.8484 70.0719 55.8484 75.1452 55.8484 80.444C51.8597 80.444 48.1991 80.444 44.1657 80.444C44.1657 77.9637 44.1657 75.536 44.1657 72.7401C42.6374 72.492 41.4072 72.2891 40.274 72.1087C39.7372 75.3105 39.2675 78.1516 38.7904 81.0002C35.8008 81.0002 32.8112 81.0002 29.8141 81.0002C29.3817 80.94 28.9418 80.8724 28.5094 80.8123C28.5094 75.7314 28.5094 70.6506 28.5094 65.8103C27.406 64.9836 26.6083 64.3898 25.8105 63.796Z" fill="#FECD4F"/>
<path d="M36.3895 8.44808C37.5898 9.7258 38.7827 11.0035 40.9821 13.341C39.2822 17.8055 36.971 23.8784 34.6151 30.0716C28.0469 30.5226 21.7471 30.951 16.0214 31.3418C15.8946 29.6357 15.8201 28.5759 15.7455 27.5162C13.2107 23.8409 10.6758 20.1655 7.9248 16.167C10.9592 13.8897 13.8966 11.695 17.1322 9.27484C18.8619 11.5372 20.4872 13.6642 22.2243 15.9491C23.3575 15.1674 24.3565 14.4834 25.6537 13.589C24.0359 11.3042 22.4777 9.117 20.7481 6.68182C23.7526 4.45708 26.6304 2.33005 29.799 -0.00743103C31.5733 2.24737 33.3104 4.44956 35.055 6.65927C35.2936 6.95991 35.5322 7.26055 35.7707 7.56119L35.6589 7.41838C35.9198 7.7566 36.1882 8.09482 36.4492 8.43305L36.3895 8.44808Z" fill="#0082C6"/>
<path d="M59.0466 62.3002C57.4735 56.4452 55.9004 50.5827 54.29 44.5849C59.0839 40.5864 63.7137 36.7232 67.9483 33.1907C69.6556 34.2354 71.0051 35.0622 72.347 35.8889C76.0747 37.1967 79.8024 38.5045 83.9924 39.9701C82.8591 43.6229 81.7408 47.2155 80.548 51.0337C77.8044 50.1994 75.359 49.4553 72.6452 48.6361C72.1979 49.7785 71.7655 50.8834 71.1691 52.4016C73.8456 53.3862 76.3431 54.2956 79.1464 55.3253C77.9982 58.918 76.8799 62.4204 75.8362 65.6899C70.4534 64.5174 65.3464 63.405 60.232 62.2927C59.8443 62.3002 59.4492 62.3002 59.0466 62.3002Z" fill="#F16A22"/>
<path d="M14.2547 33.0254C19.5182 36.7158 24.7818 40.4137 30.1496 44.1792C28.4051 50.5979 26.8245 56.4378 25.244 62.2777C24.7818 62.0372 24.327 61.7892 23.8647 61.5487C22.9925 61.7441 22.1127 61.932 21.2404 62.1274L21.0391 62.0598L20.9049 62.2326C18.6087 62.9842 16.305 63.7358 14.0087 64.4874C12.3387 64.9008 10.6687 65.3142 8.53643 65.8478C7.40321 62.3754 6.23272 58.7978 4.9653 54.9421C7.63433 53.965 10.035 53.0781 12.786 52.071C12.4058 50.8008 12.033 49.5606 11.6081 48.1476C8.93903 48.9669 6.4862 49.726 3.5935 50.6204C2.37082 46.9827 1.23014 43.5253 0 39.8049C4.45087 38.2866 8.67809 36.9338 12.8158 35.3479C13.4868 35.0923 13.785 33.8296 14.2547 33.0254Z" fill="#5EEACF"/>
<path d="M68.6045 29.9815C62.409 29.9815 56.2061 29.9815 49.6006 29.9815C47.2373 23.9687 44.8516 17.9108 42.1602 11.0637C43.5543 11.8229 44.2999 12.2287 45.3212 12.7849C45.9624 11.7853 46.611 10.7706 47.2671 9.75595C49.6454 6.61426 52.0162 3.48008 54.5361 0.142975C57.6898 2.45039 60.6645 4.62252 63.8106 6.9149C62.2226 9.25238 60.7614 11.3869 59.1286 13.7845C60.1649 14.6113 61.1863 15.4155 62.3643 16.355C64.0641 14.0777 65.6819 11.913 67.4638 9.53047C70.5429 11.8003 73.4878 13.9574 76.5594 16.2197C73.8083 20.2483 71.2288 24.0213 68.6492 27.7944C68.3361 28.1251 68.0304 28.4558 67.6278 28.8842C68.008 29.2976 68.3062 29.6283 68.6119 29.959L68.6045 29.9815Z" fill="#FF474E"/>
</g>
<defs>
<clipPath id="clip0_3_3124">
<path d="M0 0H84V63C84 72.9411 75.9411 81 66 81H18C8.05888 81 0 72.9411 0 63V0Z" fill="white"/>
</clipPath>
</defs>
</svg>
