<svg width="16" height="19" viewBox="0 0 16 19" fill="none" xmlns="http://www.w3.org/2000/svg">
<path d="M13.3337 16.1754L13.3337 14.6784C13.3337 13.8843 13.0527 13.1227 12.5526 12.5612C12.0525 11.9997 11.3742 11.6842 10.667 11.6842L5.33366 11.6842C4.62641 11.6842 3.94814 11.9997 3.44804 12.5612C2.94794 13.1227 2.66699 13.8843 2.66699 14.6784L2.66699 16.1754" stroke="#2F0B7C" stroke-width="2" stroke-linecap="round" stroke-linejoin="round"/>
<path d="M7.99967 8.69007C9.47243 8.69007 10.6663 7.34954 10.6663 5.69592C10.6663 4.0423 9.47243 2.70177 7.99967 2.70177C6.52691 2.70177 5.33301 4.04229 5.33301 5.69592C5.33301 7.34954 6.52691 8.69007 7.99967 8.69007Z" stroke="#2F0B7C" stroke-width="2" stroke-linecap="round" stroke-linejoin="round"/>
</svg>
