<svg width="16" height="16" viewBox="0 0 16 16" fill="none" xmlns="http://www.w3.org/2000/svg">
<path d="M7.33398 2.66669L2.66732 2.66669C2.3137 2.66669 1.97456 2.80716 1.72451 3.05721C1.47446 3.30726 1.33398 3.6464 1.33398 4.00002L1.33398 13.3334C1.33398 13.687 1.47446 14.0261 1.72451 14.2762C1.97456 14.5262 2.31369 14.6667 2.66732 14.6667L12.0006 14.6667C12.3543 14.6667 12.6934 14.5262 12.9435 14.2762C13.1935 14.0261 13.334 13.687 13.334 13.3334L13.334 8.66669" stroke="#2F0B7C" stroke-width="1.5" stroke-linecap="round" stroke-linejoin="round"/>
<path d="M12.334 1.66666C12.5992 1.40144 12.9589 1.25244 13.334 1.25244C13.7091 1.25244 14.0688 1.40144 14.334 1.66666C14.5992 1.93187 14.7482 2.29158 14.7482 2.66666C14.7482 3.04173 14.5992 3.40144 14.334 3.66666L8.00065 9.99999L5.33398 10.6667L6.00065 7.99999L12.334 1.66666Z" stroke="#2F0B7C" stroke-width="1.5" stroke-linecap="round" stroke-linejoin="round"/>
</svg>
