<svg width="16" height="19" viewBox="0 0 16 19" fill="none" xmlns="http://www.w3.org/2000/svg">
<g clip-path="url(#clip0_54_9367)">
<path d="M8.00065 16.924C11.6825 16.924 14.6673 13.5727 14.6673 9.4386C14.6673 5.30454 11.6825 1.95322 8.00065 1.95322C4.31875 1.95322 1.33398 5.30453 1.33398 9.4386C1.33398 13.5727 4.31875 16.924 8.00065 16.924Z" stroke="#2F0B7C" stroke-width="2" stroke-linecap="round" stroke-linejoin="round"/>
<path d="M6.06055 7.19299C6.21728 6.69272 6.52665 6.27087 6.93385 6.00217C7.34105 5.73346 7.81981 5.63524 8.28533 5.72489C8.75085 5.81455 9.17309 6.0863 9.47726 6.49201C9.78144 6.89772 9.94792 7.41121 9.94721 7.94153C9.94721 9.43861 7.94721 10.1871 7.94721 10.1871" stroke="#2F0B7C" stroke-width="2" stroke-linecap="round" stroke-linejoin="round"/>
<path d="M8 13.1813L8.00667 13.1813" stroke="#2F0B7C" stroke-width="2" stroke-linecap="round" stroke-linejoin="round"/>
</g>
<defs>
<clipPath id="clip0_54_9367">
<rect width="16" height="17.9649" fill="white" transform="translate(0 0.456146)"/>
</clipPath>
</defs>
</svg>
