<svg width="16" height="19" viewBox="0 0 16 19" fill="none" xmlns="http://www.w3.org/2000/svg">
<path d="M13.3327 16.1754L13.3327 14.6784C13.3327 13.8843 13.0517 13.1227 12.5516 12.5612C12.0515 11.9997 11.3733 11.6842 10.666 11.6842L5.33268 11.6842C4.62544 11.6842 3.94716 11.9997 3.44706 12.5612C2.94697 13.1227 2.66602 13.8843 2.66602 14.6784L2.66601 16.1754" stroke="#2F0B7C" stroke-width="2" stroke-linecap="round" stroke-linejoin="round"/>
<path d="M8.00065 8.69007C9.47341 8.69007 10.6673 7.34954 10.6673 5.69592C10.6673 4.0423 9.47341 2.70177 8.00065 2.70177C6.52789 2.70177 5.33398 4.04229 5.33398 5.69592C5.33398 7.34954 6.52789 8.69007 8.00065 8.69007Z" stroke="#2F0B7C" stroke-width="2" stroke-linecap="round" stroke-linejoin="round"/>
</svg>
