<svg width="16" height="19" viewBox="0 0 16 19" fill="none" xmlns="http://www.w3.org/2000/svg">
<g clip-path="url(#clip0_3_3109)">
<path d="M7.99967 16.924C11.6816 16.924 14.6663 13.5727 14.6663 9.4386C14.6663 5.30454 11.6816 1.95322 7.99967 1.95322C4.31778 1.95322 1.33301 5.30453 1.33301 9.4386C1.33301 13.5727 4.31777 16.924 7.99967 16.924Z" stroke="#2F0B7C" stroke-width="2" stroke-linecap="round" stroke-linejoin="round"/>
<path d="M6.05957 7.19299C6.21631 6.69272 6.52567 6.27087 6.93287 6.00217C7.34007 5.73346 7.81883 5.63524 8.28435 5.72489C8.74987 5.81455 9.17211 6.0863 9.47629 6.49201C9.78046 6.89772 9.94694 7.41121 9.94624 7.94153C9.94624 9.43861 7.94624 10.1871 7.94624 10.1871" stroke="#2F0B7C" stroke-width="2" stroke-linecap="round" stroke-linejoin="round"/>
<path d="M8 13.1813L8.00667 13.1813" stroke="#2F0B7C" stroke-width="2" stroke-linecap="round" stroke-linejoin="round"/>
</g>
<defs>
<clipPath id="clip0_3_3109">
<rect width="16" height="17.9649" fill="white" transform="translate(0 0.456146)"/>
</clipPath>
</defs>
</svg>
