<svg width="337" height="302" viewBox="0 0 337 302" fill="none" xmlns="http://www.w3.org/2000/svg">
<g clip-path="url(#clip0_29_1490)">
<path d="M306.516 275.751H271.303C266.012 275.751 261.684 271.429 261.684 266.145V258.869C261.684 253.585 266.012 249.262 271.303 249.262H306.516C311.806 249.262 316.135 253.585 316.135 258.869V266.145C316.135 271.429 311.806 275.751 306.516 275.751Z" fill="#C3E5FC"/>
<path d="M248.169 274.511C281.376 274.511 308.296 242.717 308.296 203.497C308.296 164.278 281.376 132.484 248.169 132.484C214.963 132.484 188.043 164.278 188.043 203.497C188.043 242.717 214.963 274.511 248.169 274.511Z" fill="#F5420F"/>
<path d="M148.301 302.008C220.483 302.008 278.998 243.571 278.998 171.485C278.998 99.3992 220.483 40.962 148.301 40.962C76.1188 40.962 17.6035 99.3992 17.6035 171.485C17.6035 243.571 76.1188 302.008 148.301 302.008Z" fill="white"/>
<path d="M156.565 291.658H36.2001C34.605 291.658 33.3145 290.361 33.3145 288.768V279.65L124.542 214.456H151.195V286.294C151.195 289.048 153.263 291.313 155.94 291.609C156.148 291.641 156.357 291.658 156.565 291.658Z" fill="#4FF0BC"/>
<path d="M124.542 214.456L33.3145 279.65V217.338C33.3145 215.745 34.605 214.456 36.2001 214.456H124.542Z" fill="#2EC68F"/>
<path d="M151.193 202.441V214.448H35.9182C34.4753 214.448 33.305 215.617 33.305 217.058V279.642H12.6884C11.0933 279.642 9.80273 278.353 9.80273 276.76V205.331C9.80273 203.737 11.0933 202.449 12.6884 202.449H151.193V202.441Z" fill="#4FF0BC"/>
<path d="M78.5626 239.12H51.7658C50.6997 239.12 49.834 238.255 49.834 237.191V232.636C49.834 231.571 50.6997 230.707 51.7658 230.707H78.5626C79.6287 230.707 80.4944 231.571 80.4944 232.636V237.191C80.4944 238.255 79.6287 239.12 78.5626 239.12Z" fill="#0EA084"/>
<path d="M78.5626 275.527H51.7658C50.6997 275.527 49.834 274.663 49.834 273.598V269.043C49.834 267.978 50.6997 267.114 51.7658 267.114H78.5626C79.6287 267.114 80.4944 267.978 80.4944 269.043V273.598C80.4944 274.663 79.6287 275.527 78.5626 275.527Z" fill="#098C76"/>
<path d="M160.131 270.83C169.96 261.014 169.96 245.099 160.131 235.283C150.301 225.467 134.365 225.467 124.536 235.283C114.706 245.099 114.706 261.014 124.536 270.83C134.365 280.647 150.301 280.647 160.131 270.83Z" fill="#098C76"/>
<path d="M296.6 122.702H261.387C256.096 122.702 251.768 118.379 251.768 113.096V105.819C251.768 100.536 256.096 96.2131 261.387 96.2131H296.6C301.89 96.2131 306.219 100.536 306.219 105.819V113.096C306.219 118.379 301.89 122.702 296.6 122.702Z" fill="#C3E5FC"/>
<path d="M89.7054 173.718H54.492C49.2016 173.718 44.873 169.396 44.873 164.112V156.836C44.873 151.552 49.2016 147.23 54.492 147.23H89.7054C94.9958 147.23 99.3243 151.552 99.3243 156.836V164.112C99.3243 169.396 94.9958 173.718 89.7054 173.718Z" fill="#C3E5FC"/>
<path d="M35.2134 131.98H9.61895C4.32853 131.98 0 127.657 0 122.374V115.097C0 109.814 4.32853 105.491 9.61895 105.491H35.2134C40.5038 105.491 44.8323 109.814 44.8323 115.097V122.374C44.8323 127.657 40.5038 131.98 35.2134 131.98Z" fill="#C3E5FC"/>
<path d="M283.542 112.311H156.564C153.598 112.311 151.193 114.713 151.193 117.675V256.819L171.016 243.603V235.998C171.016 234.437 172.299 233.164 173.87 233.164H186.687L208.114 218.883V209.413C208.114 207.844 209.388 206.571 210.967 206.571H226.59L288.913 165.041V117.675C288.913 114.713 286.508 112.311 283.542 112.311ZM194.895 219.5C194.895 221.069 193.621 222.341 192.05 222.341H173.87C172.299 222.341 171.016 221.069 171.016 219.5V209.413C171.016 207.844 172.299 206.571 173.87 206.571H192.05C193.621 206.571 194.895 207.844 194.895 209.413V219.5Z" fill="#FFCB39"/>
<path d="M269.083 138V165.473C269.083 168.523 266.606 170.997 263.552 170.997H176.548C173.502 170.997 171.025 168.523 171.025 165.473V157.276C171.025 160.326 173.502 162.8 176.548 162.8H258.718C261.772 162.8 264.241 160.326 264.241 157.276V137.968C264.241 135.11 262.069 132.764 259.279 132.484H263.552C266.606 132.484 269.083 134.958 269.083 138Z" fill="#80AFF9"/>
<path d="M264.241 137.968V157.276C264.241 160.326 261.772 162.8 258.718 162.8H176.548C173.502 162.8 171.025 160.326 171.025 157.276V137.968C171.025 137.792 171.033 137.608 171.057 137.439C171.338 134.662 173.695 132.484 176.548 132.484H259.279C262.069 132.764 264.241 135.11 264.241 137.968Z" fill="#94B8FF"/>
<path d="M194.896 235.998V246.092C194.896 247.661 193.614 248.926 192.051 248.926H173.871C172.3 248.926 171.025 247.653 171.025 246.092V235.998C171.025 234.429 172.308 233.164 173.871 233.164H192.051C193.614 233.164 194.896 234.437 194.896 235.998Z" fill="#EF8F26"/>
<path d="M194.896 262.599V272.685C194.896 274.254 193.614 275.527 192.051 275.527H173.871C172.3 275.527 171.025 274.246 171.025 272.685V262.599C171.025 261.03 172.308 259.757 173.871 259.757H192.051C193.614 259.749 194.896 261.022 194.896 262.599Z" fill="#EF8F26"/>
<path d="M231.986 209.413V219.508C231.986 221.077 230.712 222.341 229.14 222.341H210.969C209.398 222.341 208.123 221.069 208.123 219.508V209.413C208.123 207.844 209.398 206.579 210.969 206.579H229.14C230.712 206.571 231.986 207.844 231.986 209.413Z" fill="#EF8F26"/>
<path d="M231.986 235.998V246.092C231.986 247.661 230.712 248.926 229.14 248.926H210.969C209.398 248.926 208.123 247.653 208.123 246.092V235.998C208.123 234.429 209.398 233.164 210.969 233.164H229.14C230.712 233.164 231.986 234.437 231.986 235.998Z" fill="#EF8F26"/>
<path d="M231.986 262.599V272.685C231.986 274.254 230.712 275.527 229.14 275.527H210.969C209.398 275.527 208.123 274.246 208.123 272.685V262.599C208.123 261.03 209.398 259.757 210.969 259.757H229.14C230.712 259.749 231.986 261.022 231.986 262.599Z" fill="#EF8F26"/>
<path d="M269.082 209.413V219.508C269.082 221.077 267.799 222.341 266.236 222.341H248.057C246.485 222.341 245.211 221.069 245.211 219.508V209.413C245.211 207.844 246.493 206.579 248.057 206.579H266.236C267.799 206.571 269.082 207.844 269.082 209.413Z" fill="#EF8F26"/>
<path d="M269.082 235.998V246.092C269.082 247.661 267.799 248.926 266.236 248.926H248.057C246.485 248.926 245.211 247.653 245.211 246.092V235.998C245.211 234.429 246.493 233.164 248.057 233.164H266.236C267.799 233.164 269.082 234.437 269.082 235.998Z" fill="#EF8F26"/>
<path d="M269.082 262.599V272.685C269.082 274.254 267.799 275.527 266.236 275.527H248.057C246.485 275.527 245.211 274.246 245.211 272.685V262.599C245.211 261.03 246.493 259.757 248.057 259.757H266.236C267.799 259.749 269.082 261.022 269.082 262.599Z" fill="#EF8F26"/>
<path d="M194.896 209.413V219.508C194.896 221.077 193.614 222.341 192.051 222.341H173.871C172.3 222.341 171.025 221.069 171.025 219.508V209.413C171.025 207.844 172.308 206.579 173.871 206.579H192.051C193.614 206.571 194.896 207.844 194.896 209.413Z" fill="#EF8F26"/>
<path d="M125.022 249.327C120.037 251.696 112.301 245.852 107.74 236.278C103.171 226.704 103.508 217.018 108.486 214.649L108.494 214.641C108.502 214.641 108.51 214.633 108.518 214.625C113.504 212.295 121.215 218.147 125.776 227.697C130.337 237.279 130 246.957 125.022 249.327Z" fill="#FF5C36"/>
<path d="M114.009 239.224C113.568 239.224 113.143 238.984 112.935 238.56L108.807 230.306C108.51 229.714 108.751 228.994 109.344 228.697C109.937 228.401 110.658 228.641 110.955 229.234L115.083 237.487C115.38 238.079 115.139 238.8 114.546 239.096C114.37 239.176 114.193 239.224 114.009 239.224Z" fill="#FBACA8"/>
<path d="M120.886 237.311C120.445 237.311 120.02 237.071 119.812 236.646L115.684 228.393C115.387 227.801 115.628 227.08 116.221 226.784C116.814 226.488 117.535 226.728 117.832 227.32L121.96 235.574C122.257 236.166 122.016 236.887 121.423 237.183C121.247 237.271 121.07 237.311 120.886 237.311Z" fill="#FBACA8"/>
<path d="M145.406 203.497C145.406 206.78 147.955 209.469 151.186 209.677V262.503C142.376 259.197 133.832 247.926 125.014 249.327C129.992 246.965 130.329 237.279 125.768 227.697C121.207 218.147 113.488 212.295 108.51 214.625C109.207 214.168 120.453 206.651 124.197 197.582C126.417 192.186 130.297 181.852 135.924 171.709C139.114 165.946 142.889 160.254 147.234 155.555C148.501 154.194 149.815 152.905 151.186 151.737V197.326C147.963 197.534 145.406 200.215 145.406 203.497Z" fill="#F5420F"/>
<path d="M147.243 155.555C142.89 160.254 139.123 165.945 135.932 171.709C132.75 168.651 130.049 164.633 128.061 160.598C119.083 142.354 120.694 129.658 120.694 129.658C120.694 129.658 139.219 138.104 146.161 153.137C146.537 153.946 146.898 154.754 147.243 155.555Z" fill="#FF5C36"/>
<path d="M151.193 197.325V209.677C147.963 209.469 145.414 206.779 145.414 203.497C145.406 200.215 147.963 197.534 151.193 197.325Z" fill="#515C54"/>
<path d="M152.293 147.71C151.876 147.446 151.507 147.117 151.195 146.749C149.006 144.196 149.151 139.585 149.175 139.128C150.505 138.04 152.06 136.327 152.974 133.997C154.249 135.614 155.122 137.167 155.243 138.536C155.603 143.115 155.78 149.903 152.293 147.71Z" fill="#515C54"/>
<path d="M168.902 107.22C168.244 111.359 166.288 112.752 164.645 113.848C160.18 116.834 148.541 119.708 143.067 121.669C145.255 124.415 149.976 130.211 152.966 133.997C152.06 136.327 150.505 138.032 149.175 139.12C149.175 139.104 149.175 139.088 149.175 139.088C149.175 139.088 143.019 135.334 138.089 130.579C136.486 129.034 135.011 127.377 133.937 125.704C130.819 120.909 130.177 118.411 132.718 115.225C136.045 111.319 156.974 102.233 158.024 100.456C160.317 103.073 163.747 105.635 168.902 107.22Z" fill="#476BD9"/>
<path d="M172.491 74.015C170.311 79.6666 163.369 96.8055 158.023 100.456C156.532 98.7667 155.522 97.0537 154.832 95.5567C155.065 95.3326 155.273 95.1004 155.465 94.8443C159.457 89.761 158.904 83.429 158.904 83.429C157.469 84.6298 155.93 85.4863 154.351 86.0467C153.822 83.7652 153.542 81.6599 153.438 79.7627C155.594 78.77 157.373 77.5132 158.536 76.3685C161.678 73.2625 163.826 72.398 165.06 72.2059C166.383 73.6468 168.122 74.5273 170.038 74.5273C170.896 74.5273 171.722 74.3512 172.491 74.015Z" fill="#4FF0BC"/>
<path d="M154.352 86.0467C147.715 88.4482 140.308 85.9426 136.669 83.8453C135.988 83.4531 133.326 81.732 132.733 81.2917L133.647 80.0029L130.657 78.1297C130.104 76.9529 130.192 76.0003 131.13 75.5761C131.779 75.2879 135.964 77.7214 138.384 79.3064C143.426 82.6045 149.158 81.724 153.438 79.7627C153.542 81.6599 153.823 83.7652 154.352 86.0467Z" fill="#F9D285"/>
<path d="M192.772 112.311H186.159C186.159 112.311 177.342 107.244 173.182 95.0204C174.592 93.2673 176.548 91.298 178.953 89.8251C179.065 90.8978 179.145 91.8664 179.21 92.6829C179.578 97.63 182.712 106.372 187.778 107.901C194.415 109.926 192.772 112.311 192.772 112.311Z" fill="#F9D285"/>
<path d="M177.526 65.3615C177.526 67.1226 177.126 68.7637 176.42 70.1565C175.699 71.5894 174.665 72.7582 173.438 73.5267C172.42 74.1671 171.258 74.5273 170.04 74.5273C168.124 74.5273 166.384 73.6548 165.062 72.2058C163.659 70.6849 162.721 68.5235 162.569 66.09V66.082C162.553 65.8418 162.545 65.6096 162.545 65.3615C162.545 60.2943 165.904 57.6526 170.04 57.6526C174.176 57.6526 177.526 60.3023 177.526 65.3615Z" fill="#F9D285"/>
<path d="M149.647 143.539C148.901 144.051 148.003 144.5 146.961 144.796C145.254 142.186 140.597 135.014 138.088 130.579C143.018 135.334 149.174 139.088 149.174 139.088C149.174 139.088 149.045 141.282 149.647 143.539Z" fill="#3D62C1"/>
<path d="M151.194 146.741V156.115C144.237 153.778 147.611 145.781 147.611 145.781C147.611 145.781 147.371 145.421 146.962 144.796C147.996 144.5 148.894 144.052 149.647 143.539C149.944 144.684 150.425 145.837 151.194 146.741Z" fill="#515C54"/>
<path d="M134.312 78.7462C135.042 79.2104 135.234 80.1871 134.737 80.8835L133.495 82.6446C133.054 83.269 132.204 83.4692 131.531 83.0929L102.281 67.0107L104.942 61.8474L130.649 76.4167L134.312 78.7462Z" fill="#EF8F26"/>
<path d="M176.42 70.1567C177.125 68.7638 177.526 67.1147 177.526 65.3616C177.526 60.2944 174.176 57.6527 170.031 57.6527C165.895 57.6527 162.537 60.2944 162.537 65.3616C162.537 65.6098 162.545 65.8419 162.561 66.0821C159.314 61.4071 160.1 52.3533 170.031 50.6963C171.715 50.4161 173.374 50.6082 174.921 51.1526C177.598 52.0972 179.907 54.0904 181.302 56.5C183.883 60.9428 183.386 66.7945 176.42 70.1567Z" fill="#515C54"/>
<path d="M201.043 68.4434C197.46 70.0845 190.022 68.9878 187.962 63.2161C185.894 57.4444 181.3 56.5078 181.3 56.5078C179.906 54.0983 177.597 52.097 174.92 51.1604C175.569 43.4115 185.477 41.7625 188.924 42.0426C192.37 42.3148 199.112 45.0686 198.15 53.3218C197.356 60.1021 199.729 64.0967 202.502 64.1607C203.552 64.1847 204.154 65.4095 203.6 66.2981C203.127 67.0585 202.334 67.851 201.043 68.4434Z" fill="#515C54"/>
<path d="M111.667 45.1247C111.667 70.0445 91.4353 90.2414 66.4821 90.2414C47.7572 90.2414 31.6855 78.8661 24.832 62.6558C28.6075 62.952 32.1745 63.0241 35.5411 62.896C70.7866 61.6152 84.5417 38.6086 88.9744 17.4591V17.4511C89.7359 13.8408 90.2249 10.2865 90.4974 6.90039C103.218 14.8815 111.667 29.0185 111.667 45.1247Z" fill="#EFA63C"/>
<path d="M102.17 45.1247C102.17 64.8012 86.1948 80.7633 66.4839 80.7633C53.2579 80.7633 41.7071 73.5748 35.543 62.896C70.7884 61.6152 84.5435 38.6085 88.9762 17.4591C97.0321 23.9913 102.17 33.9576 102.17 45.1247Z" fill="#F7B643"/>
<path d="M59.6608 62.5357V65.0173C55.6609 64.2168 52.7752 62.7198 51.1641 60.6225C52.0378 60.3904 52.8955 60.1342 53.7371 59.854C55.18 61.1989 57.3923 62.0234 59.6608 62.5357Z" fill="#EF8F26"/>
<path d="M83.3067 54.2904C83.3067 59.4057 79.3309 63.4322 73.303 65.0012C72.5335 65.2013 71.7319 65.3615 70.8983 65.4815C69.8162 65.6336 68.6699 65.7137 67.4916 65.7137C65.5357 65.7137 63.7242 65.6096 62.0649 65.4015C61.2232 65.3054 60.4217 65.1773 59.6602 65.0172V62.5357C60.4698 62.7118 61.2793 62.8479 62.0649 62.9599C64.2853 63.2561 66.3133 63.3121 67.4916 63.3121C68.6859 63.3121 69.8242 63.2241 70.8983 63.048C71.74 62.9199 72.5415 62.7438 73.303 62.5116C77.9201 61.1348 80.902 58.0928 80.902 54.2904C80.902 51.0724 78.0564 48.5187 74.313 47.1098C74.8982 46.4934 75.4673 45.861 76.0204 45.2206C80.1886 47.0218 83.3067 50.1758 83.3067 54.2904Z" fill="#EF8F26"/>
<path d="M62.0649 56.3638V69.4041C62.0649 70.0605 61.5278 70.6048 60.8625 70.6048C60.1972 70.6048 59.6602 70.0605 59.6602 69.4041V57.5565C60.4858 57.1803 61.2874 56.78 62.0649 56.3638Z" fill="#EF8F26"/>
<path d="M73.3032 48.1265V69.404C73.3032 70.0605 72.7661 70.6048 72.1008 70.6048C71.4435 70.6048 70.8984 70.0605 70.8984 69.404V50.3519C71.7321 49.6395 72.5336 48.895 73.3032 48.1265Z" fill="#EF8F26"/>
<path d="M158.023 100.456C156.973 102.233 136.044 111.319 132.717 115.225C132.717 115.225 132.709 115.225 132.701 115.217C132.477 114.913 131.451 111.855 136.252 107.516C143.627 100.84 150.545 99.9035 154.833 95.5567C155.522 97.0537 156.532 98.7667 158.023 100.456Z" fill="#3D62C1"/>
<path d="M226.59 206.571H229.139C230.71 206.571 231.985 207.844 231.985 209.413V219.5C231.985 221.069 230.71 222.341 229.139 222.341H210.967C209.388 222.341 208.114 221.069 208.114 219.5V218.883L186.687 233.164H192.05C193.621 233.164 194.895 234.437 194.895 235.998V246.092C194.895 247.445 193.934 248.582 192.659 248.862C192.459 248.91 192.258 248.926 192.05 248.926H173.87C172.299 248.926 171.016 247.653 171.016 246.092V243.603L151.193 256.819V286.294C151.193 289.048 153.261 291.313 155.939 291.609C156.147 291.641 156.356 291.657 156.564 291.657H283.542C286.508 291.657 288.913 289.256 288.913 286.294V165.041L226.59 206.571ZM194.895 272.677C194.895 274.246 193.621 275.527 192.05 275.527H173.87C172.299 275.527 171.016 274.246 171.016 272.677V262.599C171.016 261.022 172.299 259.749 173.87 259.749H192.05C192.138 259.749 192.218 259.757 192.306 259.765C193.757 259.893 194.895 261.11 194.895 262.599V272.677ZM231.985 272.677C231.985 274.246 230.71 275.527 229.139 275.527H210.967C209.388 275.527 208.114 274.246 208.114 272.677V262.599C208.114 261.022 209.388 259.749 210.967 259.749H229.139C230.71 259.749 231.985 261.022 231.985 262.599V272.677ZM231.985 246.092C231.985 247.653 230.71 248.926 229.139 248.926H210.967C209.388 248.926 208.114 247.653 208.114 246.092V235.998C208.114 234.437 209.388 233.164 210.967 233.164H229.139C230.71 233.164 231.985 234.437 231.985 235.998V246.092ZM269.082 272.677C269.082 274.246 267.799 275.527 266.236 275.527H248.056C246.485 275.527 245.203 274.246 245.203 272.677V262.599C245.203 261.022 246.485 259.749 248.056 259.749H266.236C267.799 259.749 269.082 261.022 269.082 262.599V272.677ZM269.082 246.092C269.082 247.653 267.799 248.926 266.236 248.926H248.056C246.485 248.926 245.203 247.653 245.203 246.092V235.998C245.203 234.437 246.485 233.164 248.056 233.164H266.236C267.799 233.164 269.082 234.437 269.082 235.998V246.092ZM269.082 219.5C269.082 221.069 267.799 222.341 266.236 222.341H248.056C246.485 222.341 245.203 221.069 245.203 219.5V209.413C245.203 207.844 246.485 206.571 248.056 206.571H266.236C267.799 206.571 269.082 207.844 269.082 209.413V219.5Z" fill="#F4B042"/>
<path d="M90.4992 6.90039C90.2266 10.2865 89.7377 13.8408 88.9762 17.4511C82.8361 12.4719 75.0127 9.47803 66.4839 9.47803C46.773 9.47803 30.7975 25.4402 30.7975 45.1247C30.7975 51.5928 32.5209 57.6607 35.5429 62.896C32.1763 63.0241 28.6092 62.952 24.8338 62.6558C22.5573 57.2684 21.2988 51.3366 21.2988 45.1247C21.2988 20.2048 41.5307 0 66.4839 0C75.3092 0 83.5415 2.52961 90.4992 6.90039Z" fill="#F7B643"/>
<path d="M59.6615 27.9297V42.3149C55.5093 41.0581 52.0625 38.7366 52.0625 35.2144C52.0625 31.404 55.6215 29.1065 59.6615 27.9297Z" fill="#FFCB39"/>
<path d="M73.3048 25.3921V20.8452C73.3048 20.1808 72.7677 19.6445 72.1024 19.6445C71.4451 19.6445 70.9001 20.1808 70.9001 20.8452V24.8718C69.4893 24.6476 68.0384 24.5356 66.6116 24.5356C65.0806 24.5356 63.5496 24.6557 62.0667 24.8958V20.8452C62.0667 20.1808 61.5296 19.6445 60.8643 19.6445C60.199 19.6445 59.6619 20.1808 59.6619 20.8452V25.3921C54.0589 26.8651 49.6582 30.1792 49.6582 35.2144C49.6582 40.3456 54.4356 43.3475 59.6619 44.7885V57.5566C60.4875 57.1803 61.2891 56.7801 62.0667 56.3638V45.3488C63.9664 45.701 65.8501 45.8691 67.4933 45.8691C68.6316 45.8691 69.7778 45.9732 70.9001 46.1733V50.352C71.7337 49.6395 72.5353 48.8951 73.3048 48.1266V46.7577C73.6495 46.8618 73.9861 46.9818 74.3148 47.1099C74.8999 46.4935 75.4691 45.8611 76.0221 45.2207C75.1564 44.8365 74.2426 44.5163 73.3048 44.2601V27.8577C77.0722 28.9544 79.8938 31.0037 79.8938 33.7735C79.8938 34.4379 80.4308 34.9742 81.0961 34.9742C81.7534 34.9742 82.2985 34.4379 82.2985 33.7735C82.2985 29.5548 78.3147 26.713 73.3048 25.3921ZM59.6619 42.3149C55.5097 41.0581 52.0629 38.7366 52.0629 35.2144C52.0629 31.4039 55.622 29.1065 59.6619 27.9297V42.3149ZM70.9001 43.7398C69.7698 43.5557 68.6236 43.4676 67.4933 43.4676C65.794 43.4676 63.9103 43.2915 62.0667 42.9153V27.3694C63.6618 27.0732 65.2329 26.9371 66.6116 26.9371C68.0544 26.9371 69.5133 27.0652 70.9001 27.3053V43.7398Z" fill="#EF9943"/>
<path d="M70.8998 27.3054V43.7399C69.7696 43.5558 68.6233 43.4677 67.4931 43.4677C65.7938 43.4677 63.91 43.2916 62.0664 42.9154V27.3695C63.6616 27.0733 65.2326 26.9372 66.6114 26.9372C68.0542 26.9372 69.5131 27.0653 70.8998 27.3054Z" fill="#FFCB39"/>
<path d="M70.8998 46.1734V50.3521C68.2867 52.6095 65.3529 54.6348 62.0664 56.3639V45.3489C63.9662 45.7011 65.8499 45.8692 67.4931 45.8692C68.6313 45.8692 69.7776 45.9733 70.8998 46.1734Z" fill="#FFCB39"/>
<path d="M73.3047 46.7577C73.6494 46.8618 73.986 46.9818 74.3147 47.1099C73.986 47.4541 73.6494 47.7984 73.3047 48.1266V46.7577Z" fill="#EFA63C"/>
<path d="M53.7382 59.854C52.8966 60.1342 52.0389 60.3903 51.1652 60.6225C50.1712 59.3337 49.6582 57.8287 49.6582 56.1156C49.6582 55.4512 50.1953 54.9149 50.8606 54.9149C51.5259 54.9149 52.0629 55.4512 52.0629 56.1156C52.0629 57.6686 52.7042 58.8934 53.7382 59.854Z" fill="#EF9943"/>
<path d="M88.8154 17.0558V17.0638C86.8034 26.6699 82.8596 36.6603 75.8618 44.8255C74.9961 44.4412 74.0823 44.121 73.1445 43.8649V27.4624C76.9119 28.5591 79.7335 30.6084 79.7335 33.3782C79.7335 34.0426 80.2705 34.579 80.9358 34.579C81.5931 34.579 82.1382 34.0426 82.1382 33.3782C82.1382 29.1595 78.1544 26.3177 73.1445 24.9969V20.45C73.1445 19.7856 72.6074 19.2492 71.9421 19.2492C71.2848 19.2492 70.7397 19.7856 70.7397 20.45V24.4765C69.329 24.2524 67.8781 24.1403 66.4513 24.1403C64.9203 24.1403 63.3893 24.2604 61.9063 24.5006V20.45C61.9063 19.7856 61.3693 19.2492 60.704 19.2492C60.0387 19.2492 59.5016 19.7856 59.5016 20.45V24.9969C53.8986 26.4698 49.4979 29.7839 49.4979 34.8191C49.4979 39.9504 54.2753 42.9523 59.5016 44.3932V57.1613C57.6339 58.0259 55.662 58.7944 53.5779 59.4588C52.5439 58.4982 51.9026 57.2734 51.9026 55.7204C51.9026 55.056 51.3656 54.5196 50.7003 54.5196C50.0349 54.5196 49.4979 55.056 49.4979 55.7204C49.4979 57.4335 50.0109 58.9385 51.0049 60.2273C46.3397 61.5001 41.1454 62.2926 35.3821 62.5007C32.3601 57.2654 30.6367 51.1975 30.6367 44.7294C30.6367 25.0449 46.6122 9.08276 66.323 9.08276C74.8518 9.08276 82.6753 12.0767 88.8154 17.0558Z" fill="#FFCB39"/>
<path d="M178.937 89.8331C176.54 91.306 174.584 93.2753 173.173 95.0284C172.324 92.5388 171.658 89.745 171.314 86.6391C171.314 86.6391 171.979 99.5433 168.901 107.22C163.747 105.635 160.316 103.074 158.023 100.456C163.37 96.8055 170.312 79.6666 172.492 74.015C172.821 73.887 173.133 73.7189 173.438 73.5267L173.959 73.6228C177.029 76.5126 178.368 84.4217 178.937 89.8331Z" fill="#2EC68F"/>
<path d="M308.343 204.434C305.064 204.434 301.369 203.754 297.257 202.177C296.223 201.776 295.71 200.624 296.103 199.591C296.503 198.558 297.658 198.046 298.692 198.438C312.832 203.874 319.124 196.933 321.224 193.587C316.775 193.131 312.527 191.178 311.244 187.783C309.962 184.389 310.876 180.611 313.457 178.61C316.206 176.472 320.118 176.784 323.917 179.434C326.635 181.331 327.741 185.07 327.1 189.168C329.641 188.44 332.518 186.703 333.007 182.604C333.136 181.507 334.146 180.715 335.236 180.851C336.334 180.979 337.119 181.98 336.991 183.076C336.31 188.768 332.142 192.65 325.801 193.523C325.625 193.907 325.44 194.292 325.24 194.676C322.418 199.943 316.767 204.434 308.343 204.434ZM317.705 181.187C317.016 181.187 316.415 181.379 315.918 181.764C314.707 182.7 314.331 184.597 314.996 186.367C315.621 188.032 318.988 189.601 322.891 189.681C323.693 186.495 323.068 183.725 321.617 182.708C320.182 181.708 318.835 181.187 317.705 181.187Z" fill="#F5420F"/>
<circle cx="66" cy="45" r="44" fill="#9FA4B4" stroke="#18191F" stroke-width="4"/>
<circle cx="66" cy="45" r="44" fill="#5EEACF" stroke="#18191F" stroke-width="4"/>
<circle cx="66" cy="45" r="46" fill="#27CCA5"/>
<circle cx="65.9992" cy="45" r="36.8" fill="#5EEACF"/>
<path d="M55.9375 63.975H49.9C48.8325 63.975 47.8087 63.551 47.0539 62.7961C46.2991 62.0413 45.875 61.0175 45.875 59.95V45.8625C45.875 44.795 46.2991 43.7713 47.0539 43.0164C47.8087 42.2616 48.8325 41.8375 49.9 41.8375H55.9375M70.025 37.8125V29.7625C70.025 28.1613 69.3889 26.6256 68.2567 25.4934C67.1244 24.3611 65.5887 23.725 63.9875 23.725L55.9375 41.8375V63.975H78.6385C79.6092 63.986 80.5511 63.6458 81.2908 63.0171C82.0304 62.3884 82.518 61.5136 82.6635 60.5538L85.4408 42.4413C85.5283 41.8644 85.4894 41.2754 85.3267 40.7151C85.164 40.1547 84.8815 39.6365 84.4986 39.1962C84.1158 38.7559 83.6417 38.4041 83.1094 38.1652C82.5771 37.9262 81.9992 37.8059 81.4158 37.8125H70.025Z" stroke="#270276" stroke-width="3" stroke-linecap="round" stroke-linejoin="round"/>
<circle cx="66" cy="45" r="46" fill="#27CCA5"/>
<circle cx="65.9992" cy="45" r="36.8" fill="#5EEACF"/>
<path d="M85.5508 35.8L61.832 52.6187L51.0508 44.9739" stroke="white" stroke-width="6" stroke-linecap="round" stroke-linejoin="round"/>
</g>
<defs>
<clipPath id="clip0_29_1490">
<rect width="337" height="302" fill="white"/>
</clipPath>
</defs>
</svg>
