<svg width="137" height="132" viewBox="0 0 137 132" fill="none" xmlns="http://www.w3.org/2000/svg">
<path d="M42.0801 103.184C50.9774 97.7382 59.8747 92.3049 68.6384 86.9446C77.9125 92.39 87.0286 97.7625 96.1569 103.123C94.6861 103.889 93.2032 104.667 91.0518 105.785C91.0518 113.333 91.0518 121.538 91.0518 130.107C84.549 130.107 78.581 130.107 72.0052 130.107C72.0052 126.096 72.0052 122.17 72.0052 117.648C69.5135 117.247 67.508 116.919 65.6604 116.627C64.7853 121.805 64.0195 126.4 63.2416 131.006C58.3675 131.006 53.4935 131.006 48.6072 131.006C47.9022 130.909 47.1851 130.8 46.4801 130.702C46.4801 122.486 46.4801 114.269 46.4801 106.441C44.6812 105.104 43.3806 104.144 42.0801 103.184Z" fill="#FECD4F"/>
<path d="M59.327 13.6743C61.2839 15.7407 63.2287 17.807 66.8144 21.5872C64.0431 28.8073 60.2751 38.6285 56.4342 48.6441C45.7258 49.3734 35.4549 50.0663 26.12 50.6983C25.9134 47.9392 25.7919 46.2253 25.6703 44.5115C21.5377 38.5677 17.405 32.6239 12.9199 26.1575C17.8669 22.4745 22.6559 18.9253 27.9311 15.0114C30.751 18.67 33.4008 22.1099 36.2329 25.805C38.0804 24.5409 39.7091 23.4348 41.8241 21.9883C39.1865 18.2932 36.6461 14.7561 33.8262 10.8179C38.7246 7.22005 43.4164 3.78019 48.5821 0C51.475 3.64649 54.3071 7.20789 57.1513 10.7815C57.5402 11.2676 57.9292 11.7538 58.3181 12.24L58.1358 12.0091C58.5612 12.5561 58.9988 13.103 59.4242 13.65L59.327 13.6743Z" fill="#D9EEFF"/>
<path d="M96.2665 100.764C93.7018 91.2957 91.1372 81.8148 88.5117 72.1152C96.3273 65.6487 103.875 59.4011 110.779 53.6882C113.563 55.3778 115.763 56.7148 117.951 58.0519C124.028 60.1668 130.105 62.2818 136.937 64.652C135.089 70.5593 133.266 76.3694 131.321 82.5441C126.848 81.1949 122.861 79.9916 118.437 78.6667C117.708 80.5142 117.003 82.301 116.03 84.7563C120.394 86.3486 124.466 87.8194 129.036 89.4846C127.164 95.2947 125.341 100.959 123.639 106.246C114.863 104.35 106.537 102.551 98.1991 100.752C97.5671 100.764 96.9228 100.764 96.2665 100.764Z" fill="white"/>
<path d="M23.24 53.4207C31.8213 59.3887 40.4026 65.369 49.1541 71.4586C46.3098 81.839 43.733 91.2834 41.1562 100.728C40.4026 100.339 39.6612 99.9377 38.9076 99.5487C37.4854 99.8648 36.0512 100.169 34.6291 100.485L34.3009 100.375L34.0821 100.655C30.3384 101.87 26.5826 103.086 22.8389 104.301C20.1162 104.97 17.3935 105.638 13.9173 106.501C12.0697 100.886 10.1614 95.1 8.09511 88.8645C12.4465 87.2844 16.3604 85.8501 20.8455 84.2213C20.2256 82.1671 19.6179 80.1616 18.925 77.8764C14.5736 79.2013 10.5747 80.429 5.85862 81.8754C3.86523 75.9924 2.00554 70.4011 0 64.3844C7.25642 61.9291 14.1482 59.7412 20.8941 57.1765C21.9881 56.7633 22.4743 54.7212 23.24 53.4207Z" fill="#5EEACF"/>
<path d="M111.849 48.4986C101.749 48.4986 91.636 48.4986 80.8668 48.4986C77.0138 38.7746 73.1242 28.9777 68.7363 17.9046C71.0093 19.1322 72.2248 19.7886 73.89 20.6881C74.9353 19.0714 75.9928 17.4305 77.0624 15.7896C80.9398 10.7088 84.805 5.64021 88.9133 0.243408C94.0548 3.97498 98.9046 7.48777 104.034 11.195C101.445 14.9752 99.0626 18.4272 96.4007 22.3047C98.0902 23.6417 99.7554 24.9423 101.676 26.4617C104.447 22.7787 107.085 19.2781 109.99 15.425C115.01 19.0958 119.811 22.5842 124.819 26.2429C120.334 32.7579 116.128 38.8597 111.922 44.9615C111.412 45.4963 110.914 46.0312 110.257 46.724C110.877 47.3925 111.363 47.9273 111.862 48.4622L111.849 48.4986Z" fill="#FF474E"/>
</svg>
